<?xml version="1.0" standalone="no"?>
<!DOCTYPE svg PUBLIC "-//W3C//DTD SVG 20010904//EN"
 "http://www.w3.org/TR/2001/REC-SVG-20010904/DTD/svg10.dtd">
<svg version="1.0" xmlns="http://www.w3.org/2000/svg"
 width="1000.000000pt" height="1000.000000pt" viewBox="0 0 1000.000000 1000.000000"
 preserveAspectRatio="xMidYMid meet">
<metadata>
Created by potrace 1.14, written by Peter Selinger 2001-2017
</metadata>
<g transform="translate(0.000000,1000.000000) scale(0.100000,-0.100000)"
fill="#000000" stroke="none">
<path d="M9 6766 c0 -44 -1 -3066 0 -3093 l1 -21 4990 0 4990 0 1 56 c4 297 0
3073 -4 3080 -4 5 -1998 9 -4992 9 l-4985 0 -1 -31z m9868 -1314 l3 -1232
-4880 0 -4880 0 0 1229 c0 811 3 1230 10 1233 6 2 2200 3 4878 3 l4867 -1 2
-1232z"/>
<path d="M1990 6178 c0 -21 5 -28 20 -29 11 -1 23 -2 28 -3 4 -1 35 -6 70 -10
l62 -8 0 -644 c0 -354 -3 -644 -7 -644 -51 -3 -139 -13 -143 -16 -2 -3 -5 -15
-6 -28 l-1 -22 299 0 298 0 0 26 c0 26 -3 27 -77 36 l-78 9 -3 303 c-2 283 -1
302 15 303 192 12 298 -41 334 -164 12 -42 18 -99 24 -232 5 -136 24 -202 71
-250 82 -85 245 -104 417 -49 39 13 47 20 47 40 0 24 -23 34 -34 15 -4 -5 -28
-12 -55 -16 -98 -13 -138 32 -146 166 -8 137 -14 182 -31 239 -24 79 -73 151
-131 188 -55 35 -152 72 -191 72 -39 0 -18 12 30 17 132 13 247 80 308 178 33
53 51 145 45 221 -15 184 -127 282 -365 319 -19 3 -100 5 -180 4 -195 -2 -536
1 -582 5 -36 3 -38 1 -38 -26z m743 -67 c88 -43 126 -124 128 -272 1 -79 -21
-161 -55 -207 -56 -76 -135 -110 -274 -116 l-82 -3 0 308 0 308 23 4 c12 2 65
3 117 2 78 -1 104 -5 143 -24z"/>
<path d="M633 6192 l-33 -3 0 -160 0 -160 32 3 c30 3 33 8 80 123 l49 120 170
2 c154 3 169 1 170 -15 1 -9 2 -295 2 -636 1 -405 -1 -620 -8 -622 -15 -4
-115 -13 -151 -14 -27 0 -32 -4 -36 -28 l-4 -28 337 0 c309 0 338 1 342 17 8
30 -6 36 -98 44 -49 4 -92 9 -95 11 -2 3 -4 290 -5 639 l0 635 167 -3 c92 -1
172 -7 176 -12 5 -6 29 -61 53 -122 43 -111 44 -113 77 -113 l32 0 0 160 0
160 -32 1 c-81 3 -1196 4 -1225 1z"/>
<path d="M3453 6192 c-38 -3 -43 -6 -43 -28 0 -16 6 -24 18 -25 9 0 26 -2 37
-4 11 -2 41 -5 68 -6 26 -2 51 -7 55 -13 9 -12 10 -1261 1 -1270 -5 -5 -114
-17 -166 -19 -7 0 -13 -12 -13 -27 l0 -26 575 0 c394 0 575 3 576 11 0 5 2 24
3 40 2 17 6 79 10 140 5 60 10 113 13 117 2 5 -13 8 -34 8 -33 0 -40 -4 -52
-32 -8 -18 -32 -72 -54 -120 l-40 -88 -41 -1 c-23 0 -141 -2 -263 -3 l-223 -4
0 67 c-2 299 -1 552 3 558 6 9 389 9 404 0 5 -4 23 -40 38 -80 27 -70 30 -74
59 -73 l31 1 1 185 c0 102 -2 191 -4 198 -2 6 -16 12 -31 12 -23 0 -29 -8 -58
-78 l-31 -77 -206 -3 c-135 -1 -206 1 -206 8 -1 5 -1 120 -1 255 0 135 0 259
1 276 l0 30 231 -3 232 -3 41 -113 c41 -111 41 -112 74 -112 17 0 32 3 33 8 4
28 3 275 -1 282 -5 8 -942 19 -1037 12z"/>
<path d="M6384 6191 c-8 -8 -4 -40 5 -46 6 -3 35 -8 66 -11 30 -3 68 -9 83
-13 l27 -7 0 -634 c0 -569 -2 -633 -16 -635 -8 -2 -42 -6 -75 -9 -85 -10 -96
-14 -92 -39 l3 -22 373 0 c205 -1 414 3 465 8 379 34 606 196 684 487 26 96
25 359 -1 455 -70 257 -219 385 -526 451 -75 16 -138 18 -538 19 -250 0 -456
-2 -458 -4z m885 -85 c88 -19 143 -49 200 -111 97 -105 136 -253 135 -510 0
-197 -15 -278 -68 -389 -73 -151 -180 -220 -376 -244 -64 -8 -117 -9 -282 -3
l-28 1 0 633 0 634 36 1 c20 1 38 3 40 5 10 10 280 -3 343 -17z"/>
<path d="M8980 6192 c-6 -2 -10 -14 -10 -28 0 -20 9 -26 70 -45 39 -11 73 -25
76 -30 3 -5 -20 -53 -52 -107 -31 -53 -62 -106 -68 -117 -6 -11 -56 -98 -110
-193 -88 -152 -116 -192 -116 -164 0 4 -44 75 -98 157 -54 83 -101 157 -105
165 -4 8 -47 76 -96 150 -55 85 -84 137 -77 141 6 4 39 9 74 12 71 6 69 5 74
32 3 20 -3 20 -317 23 -314 2 -321 2 -322 -18 -1 -11 2 -22 7 -25 9 -5 96 -18
134 -19 19 0 79 -88 424 -617 l82 -126 0 -271 0 -270 -89 -7 c-73 -6 -90 -11
-94 -25 -2 -10 -2 -22 2 -27 3 -6 136 -9 329 -9 l322 0 0 23 c0 28 -2 29 -88
37 -40 4 -79 9 -86 12 -11 4 -13 61 -12 282 2 273 2 278 26 317 41 68 223 379
235 400 44 81 139 235 148 242 7 5 45 19 85 32 63 19 72 25 72 46 l0 24 -205
3 c-113 2 -210 2 -215 0z"/>
<path d="M4710 6166 c0 -23 5 -25 68 -31 37 -3 79 -8 93 -11 l25 -5 0 -621 -1
-621 -25 -9 c-14 -5 -32 -11 -40 -14 -75 -19 -91 -29 -88 -54 l3 -25 211 0
211 -1 -1 25 c-1 23 -10 28 -86 52 l-85 26 -3 528 c-1 291 0 527 2 524 3 -3
170 -208 219 -269 177 -219 225 -278 239 -295 9 -11 62 -76 118 -145 56 -69
116 -143 135 -165 18 -22 76 -94 129 -160 l97 -120 73 -1 73 -1 -1 644 c-1
354 2 652 5 662 4 10 31 25 68 36 63 19 73 26 78 58 3 16 -13 17 -216 17
l-218 0 4 -25 c4 -21 17 -28 82 -48 l76 -24 2 -479 c2 -379 0 -476 -10 -463
-6 9 -196 246 -422 527 l-410 511 -202 1 -203 0 0 -24z"/>
</g>
</svg>
